<svg width="49" height="35" viewBox="0 0 49 35" fill="none" xmlns="http://www.w3.org/2000/svg">
<path d="M41.65 12.4136H40.425L32.0965 1.8636C31.6373 1.28216 31.055 0.81279 30.3927 0.490209C29.7303 0.167628 29.0048 9.31098e-05 28.2699 0H11.8925C9.88881 0 8.0873 1.23593 7.34311 3.12125L3.675 12.589C1.56494 13.1429 0 15.0678 0 17.3791V26.0686C0 26.7545 0.548187 27.31 1.225 27.31H4.9C4.9 31.4236 8.19066 34.7582 12.25 34.7582C16.3093 34.7582 19.6 31.4236 19.6 27.31H29.4C29.4 31.4236 32.6907 34.7582 36.75 34.7582C40.8093 34.7582 44.1 31.4236 44.1 27.31H47.775C48.4518 27.31 49 26.7545 49 26.0686V19.8618C49 15.7482 45.7093 12.4136 41.65 12.4136ZM12.25 31.0341C10.2234 31.0341 8.575 29.3637 8.575 27.31C8.575 25.2563 10.2234 23.5859 12.25 23.5859C14.2766 23.5859 15.925 25.2563 15.925 27.31C15.925 29.3637 14.2766 31.0341 12.25 31.0341ZM17.7625 12.4136H8.95245L11.8925 4.96545H17.7625V12.4136ZM21.4375 12.4136V4.96545H28.2699L34.1499 12.4136H21.4375ZM36.75 31.0341C34.7234 31.0341 33.075 29.3637 33.075 27.31C33.075 25.2563 34.7234 23.5859 36.75 23.5859C38.7766 23.5859 40.425 25.2563 40.425 27.31C40.425 29.3637 38.7766 31.0341 36.75 31.0341Z" fill="black"/>
</svg>
