<?xml version="1.0" encoding="utf-8"?>
<!-- Generator: Adobe Illustrator 21.0.0, SVG Export Plug-In . SVG Version: 6.00 Build 0)  -->
<svg version="1.1"
	 id="Layer_1" xmlns:cc="http://creativecommons.org/ns#" xmlns:dc="http://purl.org/dc/elements/1.1/" xmlns:rdf="http://www.w3.org/1999/02/22-rdf-syntax-ns#"
	 xmlns="http://www.w3.org/2000/svg" xmlns:xlink="http://www.w3.org/1999/xlink" x="0px" y="0px" viewBox="0 0 1000 300"
	 style="enable-background:new 0 0 1000 300;" xml:space="preserve">
<style type="text/css">
	.st0{fill:#F3F027;}
	.st1{fill:#282824;}
</style>
<g id="XMLID_292_">
	<g id="XMLID_1_">
		<polygon id="XMLID_27_" class="st0" points="368.7,226.2 229.5,300 229.5,149.4 365.6,72.7 		"/>
		<polygon id="XMLID_2_" class="st1" points="96.8,74.7 229.5,149.4 229.5,0 		"/>
	</g>
	<g id="XMLID_103_">
		<g id="XMLID_153_">
			<path id="XMLID_291_" class="st1" d="M426.1,126.2V67.8H444c9.1,0,16.1,2.5,21.2,7.5c5,5,7.5,12.1,7.5,21.1
				c0,9.6-2.6,17-7.8,22.1c-5.2,5.1-12.8,7.6-22.6,7.6H426.1z M432.9,120.3h8.3c8.1,0,14.2-2,18.2-6c4.1-4,6.1-9.9,6.1-17.7
				c0-7.6-1.9-13.3-5.7-17.2c-3.8-3.9-9.5-5.8-17-5.8h-9.9V120.3z"/>
		</g>
		<g id="XMLID_151_">
			<path id="XMLID_290_" class="st1" d="M481,105.4V67.8h6.8V106c0,4.9,1.3,8.6,4,11.2c2.7,2.6,6.6,3.9,11.7,3.9
				c4.9,0,8.7-1.3,11.4-3.9c2.7-2.6,4-6.4,4-11.3V67.8h6.8v37.8c0,6.7-2,11.9-6,15.7c-4,3.8-9.5,5.7-16.6,5.7
				c-7,0-12.5-1.9-16.3-5.7C482.9,117.4,481,112.1,481,105.4z"/>
		</g>
		<g id="XMLID_149_">
			<path id="XMLID_289_" class="st1" d="M529.7,73.9v-6.1h43.7v6.1H555v52.3h-6.8V73.9H529.7z"/>
		</g>
		<g id="XMLID_147_">
			<path id="XMLID_288_" class="st1" d="M573.5,96.9c0-6,1.1-11.3,3.3-15.8c2.2-4.5,5.5-8,9.7-10.5c4.2-2.4,9.2-3.7,15-3.7
				c6.1,0,11.5,1.1,16,3.4l-2.9,5.8c-4.4-2.1-8.8-3.1-13.3-3.1c-6.4,0-11.5,2.1-15.2,6.4c-3.7,4.3-5.6,10.1-5.6,17.5
				c0,7.6,1.8,13.5,5.4,17.7c3.6,4.2,8.7,6.2,15.3,6.2c4.1,0,8.7-0.7,13.9-2.2v6c-4,1.5-9,2.3-15,2.3c-8.6,0-15.2-2.6-19.9-7.8
				C575.8,113.9,573.5,106.5,573.5,96.9z"/>
		</g>
		<g id="XMLID_145_">
			<path id="XMLID_287_" class="st1" d="M624,126.2V67.8h6.8v24.8h30.7V67.8h6.8v58.4h-6.8V98.7h-30.7v27.5H624z"/>
		</g>
		<g id="XMLID_143_">
			<path id="XMLID_286_" class="st1" d="M426.1,211.8v-58.4h6.8v58.4H426.1z"/>
			<path id="XMLID_283_" class="st1" d="M434.7,213.6h-10.4v-62h10.4V213.6z M427.9,210h3.2v-54.7h-3.2V210z"/>
		</g>
		<g id="XMLID_141_">
			<path id="XMLID_282_" class="st1" d="M448.6,211.8v-58.4h7.7l31.8,48.8h0.3c-0.1-0.7-0.2-3.1-0.4-6.9c-0.1-3-0.2-5.4-0.2-7.1
				c0-0.5,0-0.9,0-1.3v-33.5h6.3v58.4h-7.7l-31.9-49h-0.3c0.4,5.7,0.6,11,0.6,15.8v33.2H448.6z"/>
			<path id="XMLID_279_" class="st1" d="M495.9,213.6h-10.5l-29-44.6c0.2,3.4,0.3,6.6,0.3,9.6v35h-9.9v-62h10.5l29,44.5
				c0-0.3,0-0.5,0-0.8c-0.1-3-0.2-5.5-0.2-7.2v-36.6h9.9V213.6z M487.4,210h4.9v-54.7h-2.6v33c0,1.6,0.1,4,0.2,7
				c0.2,3.9,0.3,6.2,0.4,6.9l0.1,1.9h-3.2l-31.8-48.8h-4.9V210h2.6v-31.4c0-4.7-0.2-10-0.6-15.7l-0.1-1.9h3.2L487.4,210z"/>
		</g>
		<g id="XMLID_139_">
			<path id="XMLID_278_" class="st1" d="M510,211.8v-58.4h7.7l31.8,48.8h0.3c-0.1-0.7-0.2-3.1-0.4-6.9c-0.1-3-0.2-5.4-0.2-7.1
				c0-0.5,0-0.9,0-1.3v-33.5h6.3v58.4h-7.7l-31.9-49h-0.3c0.4,5.7,0.6,11,0.6,15.8v33.2H510z"/>
			<path id="XMLID_275_" class="st1" d="M557.3,213.6h-10.5l-29-44.6c0.2,3.4,0.3,6.6,0.3,9.6v35h-9.9v-62h10.5l29,44.5
				c0-0.3,0-0.5,0-0.8c-0.1-3-0.2-5.5-0.2-7.2v-36.6h9.9V213.6z M548.8,210h4.9v-54.7h-2.6v33c0,1.6,0.1,4,0.2,7
				c0.2,3.9,0.3,6.2,0.4,6.9l0.1,1.9h-3.2l-31.8-48.8h-4.9V210h2.6v-31.4c0-4.7-0.2-10-0.6-15.7l-0.1-1.9h3.2L548.8,210z"/>
		</g>
		<g id="XMLID_136_">
			<path id="XMLID_274_" class="st1" d="M568.4,182.5c0-9.5,2.3-16.9,7-22.1c4.7-5.2,11.3-7.9,20-7.9c8.4,0,14.9,2.7,19.6,8
				c4.7,5.3,7.1,12.7,7.1,22.1c0,9.3-2.4,16.7-7.1,22c-4.7,5.3-11.3,8-19.7,8c-8.6,0-15.2-2.6-19.9-7.9
				C570.7,199.5,568.4,192.1,568.4,182.5z M575.5,182.6c0,7.9,1.7,13.9,5,18c3.4,4.1,8.3,6.1,14.7,6.1c6.5,0,11.3-2,14.6-6.1
				c3.3-4.1,4.9-10.1,4.9-18c0-7.9-1.6-13.8-4.9-17.9c-3.3-4.1-8.1-6.1-14.6-6.1c-6.5,0-11.4,2-14.7,6.1
				C577.2,168.8,575.5,174.8,575.5,182.6z"/>
			<path id="XMLID_269_" class="st1" d="M595.3,214.4c-9.1,0-16.2-2.9-21.2-8.5c-5-5.6-7.5-13.4-7.5-23.4c0-9.9,2.5-17.8,7.5-23.3
				c5-5.6,12.2-8.5,21.3-8.5c8.9,0,15.9,2.9,21,8.6c5,5.6,7.5,13.5,7.5,23.3c0,9.7-2.5,17.5-7.5,23.2
				C611.3,211.5,604.2,214.4,595.3,214.4z M595.3,154.3c-8.2,0-14.2,2.4-18.6,7.3c-4.4,4.9-6.6,11.9-6.6,20.9c0,9.1,2.2,16.1,6.5,21
				c4.3,4.9,10.4,7.3,18.5,7.3c7.9,0,13.9-2.4,18.3-7.4c4.4-5,6.6-12,6.6-20.8c0-8.9-2.2-15.9-6.6-20.9
				C609.2,156.7,603.3,154.3,595.3,154.3z M595.3,208.5c-7,0-12.4-2.3-16.1-6.8c-3.6-4.4-5.5-10.8-5.5-19.2c0-8.2,1.8-14.6,5.5-19
				c3.7-4.5,9.1-6.8,16.1-6.8c7,0,12.4,2.3,16,6.8c3.5,4.4,5.3,10.8,5.3,19c0,8.3-1.8,14.8-5.4,19.2
				C607.7,206.2,602.3,208.5,595.3,208.5z M595.3,160.4c-6,0-10.3,1.8-13.4,5.5c-3.1,3.7-4.6,9.4-4.6,16.7c0,7.4,1.6,13.1,4.6,16.9
				c3,3.7,7.4,5.5,13.3,5.5c5.9,0,10.3-1.8,13.2-5.4c3-3.7,4.5-9.4,4.5-16.9c0-7.4-1.5-13-4.5-16.8
				C605.6,162.2,601.3,160.4,595.3,160.4z"/>
		</g>
		<g id="XMLID_134_">
			<path id="XMLID_268_" class="st1" d="M626,153.4h7.2l13.4,37.8c1.5,4.3,2.8,8.6,3.7,12.7c1-4.3,2.2-8.6,3.8-12.9l13.3-37.5h7.3
				l-21,58.4h-6.7L626,153.4z"/>
			<path id="XMLID_264_" class="st1" d="M654.9,213.6h-9.2l-22.2-62h11l13.8,39c0.7,2,1.4,4,2,6c0.6-2.1,1.3-4.2,2.1-6.3l13.8-38.7
				h11.2L654.9,213.6z M650.7,210h1.6l19.7-54.7h-3.5l-12.9,36.3c-1.5,4.2-2.8,8.5-3.7,12.7L650.7,210z M648.2,210h1.6l-1.3-5.7
				c-0.9-4-2.1-8.2-3.6-12.4l-13-36.6h-3.3L648.2,210z"/>
		</g>
		<g id="XMLID_131_">
			<path id="XMLID_263_" class="st1" d="M671.1,211.8l23.1-58.6h5.7l23,58.6h-7l-7.3-18.6h-23.4l-7.2,18.6H671.1z M687.6,187.1h18.9
				l-6.8-18.1c-0.9-2.3-1.8-5.1-2.7-8.4c-0.6,2.6-1.4,5.4-2.5,8.4L687.6,187.1z"/>
			<path id="XMLID_259_" class="st1" d="M725.5,213.6h-10.9l-7.3-18.6h-20.9l-7.2,18.6h-10.8l24.5-62.2h8.2L725.5,213.6z M717.1,210
				h3.1l-21.5-55h-1.4l1.4,5.1c0.9,3.3,1.8,6,2.7,8.3l7.7,20.5h-24.1l7.8-20.5c1.1-2.9,1.9-5.7,2.4-8.2l1.2-5.2h-1l-21.6,55h3
				l7.2-18.6h25.9L717.1,210z M690.2,185.3h13.6l-5.9-15.6c-0.3-0.8-0.6-1.7-0.9-2.6c-0.3,0.8-0.6,1.7-0.9,2.6L690.2,185.3z"/>
		</g>
		<g id="XMLID_129_">
			<path id="XMLID_258_" class="st1" d="M717.6,159.5v-6.1h43.7v6.1h-18.5v52.3h-6.8v-52.3H717.6z"/>
			<path id="XMLID_255_" class="st1" d="M744.7,213.6h-10.4v-52.3h-18.5v-9.7h47.4v9.7h-18.5V213.6z M737.9,210h3.2v-52.3h18.5v-2.4
				h-40.1v2.4h18.5V210z"/>
		</g>
		<g id="XMLID_127_">
			<path id="XMLID_254_" class="st1" d="M769.9,211.8v-58.4h6.8v58.4H769.9z"/>
			<path id="XMLID_251_" class="st1" d="M778.5,213.6h-10.4v-62h10.4V213.6z M771.7,210h3.2v-54.7h-3.2V210z"/>
		</g>
		<g id="XMLID_124_">
			<path id="XMLID_250_" class="st1" d="M789.4,182.5c0-9.5,2.3-16.9,7-22.1c4.7-5.2,11.3-7.9,20-7.9c8.4,0,14.9,2.7,19.6,8
				c4.7,5.3,7.1,12.7,7.1,22.1c0,9.3-2.4,16.7-7.1,22c-4.7,5.3-11.3,8-19.7,8c-8.6,0-15.2-2.6-19.9-7.9
				C791.7,199.5,789.4,192.1,789.4,182.5z M796.6,182.6c0,7.9,1.7,13.9,5,18c3.4,4.1,8.3,6.1,14.7,6.1c6.5,0,11.3-2,14.6-6.1
				c3.3-4.1,4.9-10.1,4.9-18c0-7.9-1.6-13.8-4.9-17.9c-3.3-4.1-8.1-6.1-14.6-6.1c-6.5,0-11.4,2-14.7,6.1
				C798.3,168.8,796.6,174.8,796.6,182.6z"/>
			<path id="XMLID_245_" class="st1" d="M816.3,214.4c-9.1,0-16.2-2.9-21.2-8.5c-5-5.6-7.5-13.4-7.5-23.4c0-9.9,2.5-17.8,7.5-23.3
				c5-5.6,12.2-8.5,21.3-8.5c8.9,0,15.9,2.9,21,8.6c5,5.6,7.5,13.5,7.5,23.3c0,9.7-2.5,17.5-7.5,23.2
				C832.3,211.5,825.2,214.4,816.3,214.4z M816.4,154.3c-8.2,0-14.2,2.4-18.6,7.3c-4.4,4.9-6.6,11.9-6.6,20.9c0,9.1,2.2,16.1,6.5,21
				c4.3,4.9,10.4,7.3,18.5,7.3c7.9,0,13.9-2.4,18.3-7.4c4.4-5,6.6-12,6.6-20.8c0-8.9-2.2-15.9-6.6-20.9
				C830.3,156.7,824.3,154.3,816.4,154.3z M816.3,208.5c-7,0-12.4-2.3-16.1-6.8c-3.6-4.4-5.5-10.8-5.5-19.2c0-8.2,1.8-14.6,5.5-19
				c3.7-4.5,9.1-6.8,16.1-6.8c7,0,12.4,2.3,16,6.8c3.5,4.4,5.3,10.8,5.3,19c0,8.3-1.8,14.8-5.4,19.2
				C828.7,206.2,823.3,208.5,816.3,208.5z M816.4,160.4c-6,0-10.3,1.8-13.4,5.5c-3.1,3.7-4.6,9.4-4.6,16.7c0,7.4,1.6,13.1,4.6,16.9
				c3,3.7,7.4,5.5,13.3,5.5c5.9,0,10.3-1.8,13.2-5.4c3-3.7,4.5-9.4,4.5-16.9c0-7.4-1.5-13-4.5-16.8
				C826.6,162.2,822.3,160.4,816.4,160.4z"/>
		</g>
		<g id="XMLID_122_">
			<path id="XMLID_244_" class="st1" d="M855.9,211.8v-58.4h7.7l31.8,48.8h0.3c-0.1-0.7-0.2-3.1-0.4-6.9c-0.1-3-0.2-5.4-0.2-7.1
				c0-0.5,0-0.9,0-1.3v-33.5h6.3v58.4h-7.7l-31.9-49h-0.3c0.4,5.7,0.6,11,0.6,15.8v33.2H855.9z"/>
			<path id="XMLID_241_" class="st1" d="M903.2,213.6h-10.5l-29-44.6c0.2,3.4,0.3,6.6,0.3,9.6v35H854v-62h10.5l29,44.5
				c0-0.3,0-0.5,0-0.8c-0.1-3-0.2-5.5-0.2-7.2v-36.6h9.9V213.6z M894.7,210h4.9v-54.7h-2.6v33c0,1.6,0.1,4,0.2,7
				c0.2,3.9,0.3,6.2,0.4,6.9l0.1,1.9h-3.2l-31.8-48.8h-4.9V210h2.6v-31.4c0-4.7-0.2-10-0.6-15.7l-0.1-1.9h3.2L894.7,210z"/>
		</g>
		<g id="XMLID_120_">
			<path id="XMLID_240_" class="st1" d="M426.1,297.4V239h32.5v6.1h-25.7v21.3h24.2v6.1h-24.2v24.9H426.1z"/>
			<path id="XMLID_237_" class="st1" d="M434.7,299.2h-10.4v-62h36.1v9.7h-25.7v17.7h24.2v9.7h-24.2V299.2z M427.9,295.6h3.2v-24.9
				h24.2v-2.4h-24.2v-24.9h25.7v-2.4h-28.9V295.6z"/>
		</g>
		<g id="XMLID_117_">
			<path id="XMLID_236_" class="st1" d="M459,297.4l23.1-58.6h5.7l23,58.6h-7l-7.3-18.6h-23.4l-7.2,18.6H459z M475.5,272.7h18.9
				l-6.8-18.1c-0.9-2.3-1.8-5.1-2.7-8.4c-0.6,2.6-1.4,5.4-2.5,8.4L475.5,272.7z"/>
			<path id="XMLID_232_" class="st1" d="M513.4,299.2h-10.9l-7.3-18.6h-20.9l-7.2,18.6h-10.8l24.5-62.2h8.2L513.4,299.2z M505,295.6
				h3.1l-21.5-55h-1.4l1.4,5.1c0.9,3.3,1.8,6,2.7,8.3l7.7,20.5h-24.1l7.8-20.5c1.1-2.9,1.9-5.7,2.4-8.2l1.2-5.2h-1l-21.6,55h3
				l7.2-18.6h25.9L505,295.6z M478.1,270.9h13.6l-5.9-15.6c-0.3-0.8-0.6-1.7-0.9-2.6c-0.3,0.8-0.6,1.7-0.9,2.6L478.1,270.9z"/>
		</g>
		<g id="XMLID_115_">
			<path id="XMLID_231_" class="st1" d="M514.5,268.1c0-6,1.1-11.3,3.3-15.8c2.2-4.5,5.5-8,9.7-10.5c4.2-2.4,9.2-3.7,15-3.7
				c6.1,0,11.5,1.1,16,3.4l-2.9,5.8c-4.4-2.1-8.8-3.1-13.3-3.1c-6.4,0-11.5,2.1-15.2,6.4c-3.7,4.3-5.6,10.1-5.6,17.5
				c0,7.6,1.8,13.5,5.4,17.7c3.6,4.2,8.7,6.2,15.3,6.2c4.1,0,8.7-0.7,13.9-2.2v6c-4,1.5-9,2.3-15,2.3c-8.6,0-15.2-2.6-19.9-7.8
				C516.8,285.1,514.5,277.7,514.5,268.1z"/>
			<path id="XMLID_228_" class="st1" d="M541.3,300c-9.1,0-16.2-2.8-21.2-8.4c-4.9-5.5-7.4-13.4-7.4-23.4c0-6.3,1.2-11.8,3.5-16.6
				c2.4-4.8,5.9-8.6,10.4-11.2c4.5-2.6,9.8-3.9,15.9-3.9c6.4,0,12,1.2,16.8,3.5l1.6,0.8l-4.5,9l-1.6-0.8c-4.2-1.9-8.4-2.9-12.5-2.9
				c-5.9,0-10.4,1.9-13.8,5.8c-3.4,3.9-5.1,9.4-5.1,16.3c0,7.2,1.7,12.7,4.9,16.5c3.2,3.8,7.8,5.6,13.9,5.6c3.9,0,8.4-0.7,13.4-2.1
				l2.3-0.6v9.6l-1.2,0.4C552.7,299.2,547.5,300,541.3,300z M542.5,240c-5.4,0-10.1,1.2-14.1,3.4c-3.9,2.3-6.9,5.5-9,9.7
				c-2.1,4.2-3.1,9.3-3.1,15c0,9.1,2.2,16.2,6.5,21c4.3,4.9,10.4,7.2,18.5,7.2c5.1,0,9.5-0.6,13.2-1.8v-2.3
				c-4.4,1.1-8.5,1.7-12.1,1.7c-7.1,0-12.8-2.3-16.7-6.9c-3.9-4.5-5.8-10.8-5.8-18.9c0-7.8,2-14.1,6-18.7c4.1-4.7,9.6-7,16.6-7
				c4.1,0,8.3,0.9,12.4,2.6l1.3-2.6C552.2,240.8,547.6,240,542.5,240z"/>
		</g>
		<g id="XMLID_113_">
			<path id="XMLID_227_" class="st1" d="M562.2,245.1V239H606v6.1h-18.5v52.3h-6.8v-52.3H562.2z"/>
			<path id="XMLID_224_" class="st1" d="M589.3,299.2h-10.4v-52.3h-18.5v-9.7h47.4v9.7h-18.5V299.2z M582.5,295.6h3.2v-52.3h18.5
				v-2.4H564v2.4h18.5V295.6z"/>
		</g>
		<g id="XMLID_110_">
			<path id="XMLID_223_" class="st1" d="M610.5,268.1c0-9.5,2.3-16.9,7-22.1c4.7-5.2,11.3-7.9,20-7.9c8.4,0,14.9,2.7,19.6,8
				c4.7,5.3,7.1,12.7,7.1,22.1c0,9.3-2.4,16.7-7.1,22c-4.7,5.3-11.3,8-19.7,8c-8.6,0-15.2-2.6-19.9-7.9
				C612.8,285.1,610.5,277.7,610.5,268.1z M617.7,268.2c0,7.9,1.7,13.9,5,18c3.4,4.1,8.3,6.1,14.7,6.1c6.5,0,11.3-2,14.6-6.1
				c3.3-4.1,4.9-10.1,4.9-18c0-7.9-1.6-13.8-4.9-17.9c-3.3-4.1-8.1-6.1-14.6-6.1c-6.5,0-11.4,2-14.7,6.1
				C619.3,254.4,617.7,260.4,617.7,268.2z"/>
			<path id="XMLID_218_" class="st1" d="M637.4,300c-9.1,0-16.2-2.9-21.2-8.5c-5-5.6-7.5-13.4-7.5-23.4c0-9.9,2.5-17.8,7.5-23.3
				c5-5.6,12.2-8.5,21.3-8.5c8.9,0,15.9,2.9,21,8.6c5,5.6,7.5,13.5,7.5,23.3c0,9.7-2.5,17.5-7.5,23.2
				C653.4,297.1,646.3,300,637.4,300z M637.5,239.9c-8.2,0-14.2,2.4-18.6,7.3c-4.4,4.9-6.6,11.9-6.6,20.9c0,9.1,2.2,16.1,6.5,21
				c4.3,4.9,10.4,7.3,18.5,7.3c7.9,0,13.9-2.4,18.3-7.4c4.4-5,6.6-12,6.6-20.8c0-8.9-2.2-15.9-6.6-20.9
				C651.4,242.3,645.4,239.9,637.5,239.9z M637.4,294.1c-7,0-12.4-2.3-16.1-6.8c-3.6-4.4-5.5-10.8-5.5-19.2c0-8.2,1.8-14.6,5.5-19
				c3.7-4.5,9.1-6.8,16.1-6.8c7,0,12.4,2.3,16,6.8c3.5,4.4,5.3,10.8,5.3,19c0,8.3-1.8,14.8-5.4,19.2
				C649.8,291.8,644.4,294.1,637.4,294.1z M637.5,246c-6,0-10.3,1.8-13.4,5.5c-3.1,3.7-4.6,9.4-4.6,16.7c0,7.4,1.6,13.1,4.6,16.9
				c3,3.7,7.4,5.5,13.3,5.5c5.9,0,10.3-1.8,13.2-5.4c3-3.7,4.5-9.4,4.5-16.9c0-7.4-1.5-13-4.5-16.8C647.7,247.8,643.4,246,637.5,246
				z"/>
		</g>
		<g id="XMLID_107_">
			<path id="XMLID_217_" class="st1" d="M677.6,297.4V239h16c7.2,0,12.4,1.4,15.9,4.1c3.4,2.7,5.1,6.8,5.1,12.3
				c0,7.7-3.9,12.9-11.7,15.7l15.8,26.2h-8l-14.1-24.3h-12.2v24.3H677.6z M684.4,267.3h9.3c4.8,0,8.3-1,10.5-2.9
				c2.2-1.9,3.4-4.8,3.4-8.6c0-3.9-1.1-6.7-3.4-8.4c-2.3-1.7-5.9-2.6-11-2.6h-8.8V267.3z"/>
			<path id="XMLID_212_" class="st1" d="M721.9,299.2h-12.3l-14.1-24.3h-9.3v24.3h-10.4v-62h17.8c7.5,0,13.3,1.5,17,4.5
				c3.9,3.1,5.8,7.7,5.8,13.8c0,7.8-3.7,13.4-10.9,16.6L721.9,299.2z M711.7,295.6h3.8l-15.3-25.4l2.1-0.7c7.1-2.5,10.5-7,10.5-14
				c0-5-1.5-8.5-4.4-10.9c-3.1-2.5-8-3.7-14.7-3.7h-14.2v54.7h3.2v-24.3h15L711.7,295.6z M693.7,269.1h-11.1v-26h10.6
				c5.5,0,9.4,1,12,2.9c2.7,2.1,4.1,5.4,4.1,9.8c0,4.4-1.3,7.7-4,10C702.8,268,699,269.1,693.7,269.1z M686.2,265.5h7.5
				c4.3,0,7.5-0.8,9.4-2.4c1.8-1.6,2.7-3.9,2.7-7.2c0-3.3-0.9-5.6-2.7-6.9c-1.9-1.5-5.3-2.2-9.9-2.2h-7V265.5z"/>
		</g>
		<g id="XMLID_105_">
			<path id="XMLID_211_" class="st1" d="M720.5,239h7.4l15.4,29.2l15.5-29.2h7.3l-19.5,35.7v22.6h-6.8v-22.3L720.5,239z"/>
			<path id="XMLID_142_" class="st1" d="M748.5,299.2h-10.4v-23.7l-20.7-38.3H729l14.3,27.1l14.4-27.1h11.5l-20.7,38V299.2z
				 M741.7,295.6h3.2v-21.3l18.2-33.5h-3.2l-16.6,31.2l-16.5-31.2h-3.3l18.2,33.8V295.6z"/>
		</g>
	</g>
</g>
</svg>
