<?xml version="1.0" encoding="utf-8"?>
<!-- Generator: Adobe Illustrator 21.0.0, SVG Export Plug-In . SVG Version: 6.00 Build 0)  -->
<svg version="1.1" id="Layer_1" xmlns="http://www.w3.org/2000/svg" xmlns:xlink="http://www.w3.org/1999/xlink" x="0px" y="0px"
	 viewBox="0 0 50 50" style="enable-background:new 0 0 50 50;" xml:space="preserve">
<style type="text/css">
	.st0{fill:#FFFFFF;}
</style>
<g id="XMLID_2_">
	<line id="XMLID_10_" class="st0" x1="5.5" y1="11.2" x2="44.5" y2="11.2"/>
	<path id="XMLID_9_" class="st0" d="M44.5,13.7h-39c-1.4,0-2.5-1.1-2.5-2.5s1.1-2.5,2.5-2.5h39c1.4,0,2.5,1.1,2.5,2.5
		S45.9,13.7,44.5,13.7z"/>
</g>
<g id="XMLID_3_">
	<line id="XMLID_8_" class="st0" x1="5.5" y1="25" x2="44.5" y2="25"/>
	<path id="XMLID_7_" class="st0" d="M44.5,27.5h-39C4.1,27.5,3,26.4,3,25s1.1-2.5,2.5-2.5h39c1.4,0,2.5,1.1,2.5,2.5
		S45.9,27.5,44.5,27.5z"/>
</g>
<g id="XMLID_4_">
	<line id="XMLID_6_" class="st0" x1="5.3" y1="38.8" x2="44.3" y2="38.8"/>
	<path id="XMLID_5_" class="st0" d="M44.3,41.3h-39c-1.4,0-2.5-1.1-2.5-2.5s1.1-2.5,2.5-2.5h39c1.4,0,2.5,1.1,2.5,2.5
		S45.7,41.3,44.3,41.3z"/>
</g>
</svg>
