<?xml version="1.0" encoding="utf-8"?>
<!-- Generator: Adobe Illustrator 21.0.0, SVG Export Plug-In . SVG Version: 6.00 Build 0)  -->
<svg version="1.1"
	 id="Layer_1" xmlns:cc="http://creativecommons.org/ns#" xmlns:dc="http://purl.org/dc/elements/1.1/" xmlns:rdf="http://www.w3.org/1999/02/22-rdf-syntax-ns#"
	 xmlns="http://www.w3.org/2000/svg" xmlns:xlink="http://www.w3.org/1999/xlink" x="0px" y="0px" viewBox="0 0 1000 300"
	 style="enable-background:new 0 0 1000 300;" xml:space="preserve">
<style type="text/css">
	.st0{fill:#A9B734;}
</style>
<g id="XMLID_1_" transform="translate(-162.99 -376.03)">
	<path id="XMLID_2_" class="st0" d="M545,630.7c-8.5-3-11.8-8.5-13.2-22.5c-1.2-11.2,2.9-23.8,9-28.2c9.5-6.8,27.9-5.1,33.3,3
		c5.4,8.1,6.1,26.4,1.5,37.1c-2.1,4.8-7,9.2-12,10.7C558.7,632.3,549.3,632.2,545,630.7L545,630.7z M562.1,625.3
		c3.7-1.9,5.7-4.2,7.8-8.7c1.5-3.2,1.7-5,1.7-12.8c0-9.9-0.8-13.2-4-17c-2.8-3.4-7.2-5.1-12.9-5.1c-7,0-10.5,2.2-13.7,8.8
		c-2.4,4.9-2.5,5.4-2.5,14.1c0,8.4,0.1,9.4,2.1,13.3c2.1,4.3,5,6.8,9.4,8.1C553.7,627.1,559.2,626.8,562.1,625.3L562.1,625.3z
		 M623.9,630.5c-5.4-1.9-9.3-6-11.1-11.8c-1-3.4-1.3-6.8-1.3-14.5c0-8.7,0.3-10.8,1.8-14.6c2.2-5.7,5.8-9.6,10.8-11.8
		c5.6-2.5,16.4-2.5,22.6,0c2.4,0.9,4.3,1.9,4.3,2.2c0,0.3-0.9,1.5-1.9,2.6c-1.8,2.1-1.8,2.1-4.3,0.8c-1.9-1-4.2-1.3-9.7-1.3
		c-6.8,0-7.4,0.1-10.1,2.2c-4.6,3.5-6.7,9-7.1,18.6c-0.4,10.2,1,15.5,5,19.5c4.5,4.5,12.5,5.8,18.9,2.9c5.7-2.6,6-3.1,6-10.2v-6.3
		h-7.1h-7.1v-3v-3h10.5h10.5v10.4v10.4l-2.8,2.4c-4.7,4.1-8.7,5.5-16.8,5.8C629.5,631.9,627.2,631.7,623.9,630.5L623.9,630.5z
		 M763.9,630.8c-4.1-1.1-8.1-2.9-8.7-3.9c-0.2-0.3,0.1-1.7,0.7-3l1-2.4l5,2.3c9.9,4.6,20.8,3.4,23.3-2.7c2.7-6.5,0.1-10.1-10.9-14.7
		c-9.8-4.1-13.8-6.7-15.3-10c-2.4-5.1-1.1-12.2,3-16.5c4.6-4.8,16.1-5.7,24.5-1.9c4.5,2.1,5,2.9,3.2,5.6l-1.1,1.6l-3.3-1.8
		c-2.1-1.2-5.1-2-8.1-2.3c-8.2-0.8-12.8,2.4-12.9,8.9c-0.1,2.6,0.3,3.4,2.5,5.2c1.4,1.2,5.8,3.5,9.8,5.2c9.2,3.9,12.4,6.1,14.3,9.8
		c2.1,4.1,2,10.1-0.2,14.3c-2.6,5-7.2,7-15.9,7.3C770.5,631.9,766.4,631.5,763.9,630.8L763.9,630.8z M836.7,630.5
		c-8.8-3.1-12.4-10.5-12.3-26c0-7.4,0.3-9.9,1.7-14.1c2.2-6.5,6.5-11.1,12.2-13.1c5.8-2,15.6-1.9,20.4,0.3c2,0.9,3.6,1.9,3.6,2.3
		s-0.7,1.6-1.5,2.6l-1.5,1.9l-3.2-1.4c-4.5-2-11.8-2-16.2,0.1c-6.5,3.2-9.7,11.9-9,24.6c0.4,7.1,1.9,11.4,4.9,14.6
		c4.9,5.1,14.4,5.7,21.5,1.3l3.8-2.4l1.7,2.1c2.1,2.6,1.6,3.3-4.1,6.1C853,632.2,842.9,632.7,836.7,630.5L836.7,630.5z M985.4,631.2
		c-3.5-1.1-8-3.9-9.6-6.2c-6.8-9.2-6.3-33.6,0.9-42c6.1-7.2,20.3-9.6,30.2-5c8,3.6,10.5,9.6,10.5,24.9c0,9.3-0.2,11-1.7,15
		c-2.4,6.2-7.4,11.1-12.8,12.7C998.6,632,988.9,632.3,985.4,631.2L985.4,631.2z M1003.4,624c1.6-1.3,3.8-4.2,5.1-6.7
		c2.1-4.2,2.3-5,2.3-13.5c0-12.5-2-17.3-8.7-20.7c-3.5-1.8-11.8-2-14.8-0.4c-2.6,1.4-5.6,4.6-7.3,7.9c-2.1,4.1-3,14.6-2,20.9
		c1.8,10.8,7.4,15.5,17.9,15C999.8,626.3,1001,625.9,1003.4,624L1003.4,624z M1063.5,630.8c-5.1-1.6-9.6-6.3-11.4-12
		c-2-6.1-2.1-21.3-0.2-27.6c1.9-6,5.4-10.3,10.6-13c3.9-2,5.1-2.2,11.2-2.2c8.7,0,12.6,1.1,16.7,4.9c5,4.6,6,8.3,6,22.1
		c0,9.4-0.2,12-1.5,15.3c-3.3,9-9.6,13-21.1,13.4C1069.3,631.9,1066,631.6,1063.5,630.8L1063.5,630.8z M1080.8,625.2
		c3.5-1.6,7.1-6.5,8.6-11.7c1.1-3.9,1.1-16.4,0-20.4c-2.2-7.7-7.5-11.6-15.7-11.6c-7.6,0-11.4,2.5-14.6,9.4
		c-1.5,3.3-1.7,4.9-1.7,13.5c0,8.7,0.2,10.2,1.8,13.4C1062.9,625.6,1072.7,628.9,1080.8,625.2z M457.1,603.9l0.2-27.3l3.2-0.2
		l3.2-0.2v11.7v11.7h13.5h13.5l0.2-11.5l0.2-11.5l3.2-0.2l3.2-0.2v27.5v27.5h-3.4h-3.4v-12.8v-12.8h-13.5h-13.5v12.8v12.8h-3.4h-3.4
		L457.1,603.9z M690.8,603.8v-27.4h16.5h16.5v3v3h-13.2h-13.2v8.3v8.3h10.5h10.5v3v3h-10.5h-10.5V615v10.2H711h13.4l0.5,2.3
		c0.3,1.3,0.5,2.6,0.5,3c0,0.4-7.8,0.7-17.3,0.7h-17.3L690.8,603.8L690.8,603.8z M896.8,603.8v-27.4h3h3V588v11.7h13.5h13.5
		l0.2-11.5l0.2-11.5l3.2-0.2l3.2-0.2v27.5v27.5h-3.4h-3.4v-12.8v-12.8h-13.5h-13.5v12.8v12.8h-3h-3L896.8,603.8L896.8,603.8z
		 M1131.6,603.9l0.2-27.3l3.2-0.2l3.2-0.2v24.5v24.5h11.9c12.9,0,12.9,0,12.9,4.2v1.8h-15.8h-15.8L1131.6,603.9L1131.6,603.9z
		 M751.4,534.2c-21.8-2.4-33.3-11.9-38.8-32c-1.5-5.3-1.7-7.9-1.7-22.9c-0.1-15.4,0.1-17.5,1.7-23.2c5.2-18.9,15.9-29.8,33.4-33.9
		c16.8-3.9,31.6-2.2,47,5.4c3.4,1.7,6.2,3.3,6.2,3.5c0,0.8-11.3,16.2-11.9,16.2c-0.3,0-3.4-1.4-6.9-3.2c-13-6.5-25.6-6.2-33.3,0.6
		c-7,6.2-10.4,17.1-10.5,33.8c0,15.3,2.6,24.1,8.9,30.2c4.7,4.5,9.3,6.2,17.2,6.2c7.1,0,9.1-0.6,14.5-4.6l2.4-1.8v-9.4v-9.4H766
		h-13.5v-9.4V471h26.7h26.7v21.7v21.7l-5.9,5.6c-6.7,6.4-13.7,10.3-22.7,12.5C770.6,534.3,758.6,535,751.4,534.2L751.4,534.2z
		 M866.8,534.5c-12.5-1.4-20.6-3.6-28.4-7.8c-8-4.3-7.8-3.2-3.2-13.9l4-9.4l2.3,1.5c4.2,2.8,14.2,7.4,18.8,8.6
		c6.3,1.6,16.6,2.2,20.5,1.2c6.1-1.7,10-6.5,10-12.4c0-6.2-3.2-8.6-20.8-15.5c-17.6-6.9-26.8-13.3-30.9-21.7
		c-1.9-3.9-2.1-5-2.1-12.5c0-7.7,0.2-8.6,2.3-13.2c5.4-11.3,14-16.7,30.2-18.8c12-1.5,26.7,1.2,38.5,7.2c8.3,4.2,8.1,3.3,2.9,12.4
		c-2.5,4.3-4.8,8.2-5.1,8.5c-0.3,0.3-2.5-0.6-4.8-2c-10.4-6.3-26.2-8.9-33.1-5.4c-3.6,1.8-5.7,5.2-5.7,9.1c0,5.7,2.3,7.3,20,14.8
		c20.2,8.5,26.9,13.3,31.3,22.2c2.4,4.8,2.5,5.4,2.4,13.7c0,7.2-0.3,9.4-1.7,13c-3.7,9.2-13.5,16.5-25.3,19
		C883.3,534.2,871.1,535,866.8,534.5L866.8,534.5z M344.9,477.8v-54.9h12.8h12.8v21.4v21.4h19.5h19.5v-21.4v-21.4h12.8h12.8v54.9
		v54.9h-12.8h-12.8v-23.3v-23.3h-19.5h-19.5v23.3v23.3h-12.8h-12.8L344.9,477.8L344.9,477.8z M461.1,530.6
		c0.2-0.7,9.9-25.3,21.4-54.7l21-53.4l11.8-0.2c11.1-0.2,11.8-0.1,11.3,1.1c-0.3,0.7-8.8,24.9-18.8,53.6
		c-10.1,28.7-18.5,52.8-18.8,53.6c-0.5,1.2-1.9,1.3-14.4,1.3C461.6,531.9,460.7,531.8,461.1,530.6L461.1,530.6z M539,530.2
		c-0.3-0.9-1.9-5.7-3.5-10.5l-2.9-8.8h-12.2h-12.2l3.5-10.1l3.5-10.1l5.5,0c3,0,5.5-0.3,5.5-0.6c0-0.3-1.1-4-2.5-8.1l-2.5-7.5
		l6.1-17.4c3.8-11,6.3-17.1,6.7-16.4c0.5,0.8,24,62,33.3,86.7l1.8,4.7h-14.6C539.8,531.9,539.6,531.9,539,530.2L539,530.2z
		 M584.3,522c2.2-5.5,11.9-30,21.6-54.5l17.6-44.6l11.5,0.2l11.5,0.2l20.5,54.3l20.5,54.3h-14.2h-14.2l-0.8-2.1
		c-0.4-1.1-2.2-6-3.9-10.7l-3.1-8.6h-17.6h-17.6l-3.9,10.5l-3.9,10.5l-14,0.2l-14,0.2L584.3,522L584.3,522z M643.7,485.5
		c-2.6-6.7-8.3-24-8.9-26.9c-0.4-2-0.6-1.7-1.8,3c-1.2,4.7-4,12.6-8.9,25l-1.6,3.9H634h11.6L643.7,485.5L643.7,485.5z M950.2,477.4
		v-54.5h38.3h38.3v9.8v9.8h-25.2h-25.2v10.9v10.9h20.3h20.3v9.8v9.8h-20.3h-20.3v14.3v14.3h25.5h25.5l0.8,5.6
		c0.5,3.1,1.1,7.5,1.3,9.8l0.5,4.2h-40h-40L950.2,477.4L950.2,477.4z M163,454.6v-31.7l14.1,0c26.9,0,34.1,3.8,37.5,19.4
		c3.4,15.9-0.8,32.3-9.7,38.3c-6.2,4.1-9.7,4.8-26.6,5.3l-15.2,0.4L163,454.6L163,454.6z M192,472.6c5.6-2.6,8.6-8.9,8.6-18.7
		c0-7.4-1.2-11.8-4.1-14.8c-2.8-3-6.6-4.2-13.4-4.2l-5.1,0v19.5V474l5.5,0C187.2,474,189.9,473.5,192,472.6L192,472.6z M241.2,454.5
		v-31.6H263h21.8v5.6v5.6h-14.3h-14.3v6.4v6.4h11.7h11.7v5.6v5.6h-11.7h-11.7v8.3v8.3h14.6h14.6l0.5,3.2c0.3,1.8,0.7,4.3,0.9,5.6
		l0.4,2.4h-23h-23L241.2,454.5L241.2,454.5z"/>
</g>
</svg>
