<?xml version="1.0" encoding="utf-8"?>
<!-- Generator: Adobe Illustrator 21.0.0, SVG Export Plug-In . SVG Version: 6.00 Build 0)  -->
<svg version="1.1" id="Layer_1" xmlns="http://www.w3.org/2000/svg" xmlns:xlink="http://www.w3.org/1999/xlink" x="0px" y="0px"
	 viewBox="0 0 1000 300" style="enable-background:new 0 0 1000 300;" xml:space="preserve">
<style type="text/css">
	.st0{fill:#EB4B67;}
	.st1{fill:#32164B;}
</style>
<g id="XMLID_1_" transform="matrix(4.16667,0,0,4.16667,0.00208537,-2.99374)">
	<g id="XMLID_2_">
		<g id="XMLID_3_">
			<path id="XMLID_26_" class="st0" d="M151.9,55.1l9.8-27.7h-4.5l-9.8,27.7H151.9z"/>
			<path id="XMLID_25_" class="st0" d="M143,55.1l9.8-27.7h-4.5l-9.8,27.7H143z"/>
			<path id="XMLID_24_" class="st1" d="M29.5,33.9v12h-2.8V34.4c0-2.9-2-4.8-4.8-4.8c-3.4,0-5.7,2.5-5.7,6.9v9.4h-2.8V34.4
				c0-2.9-2-4.8-4.7-4.8c-3.4,0-5.6,2.5-5.6,6.9v9.4H0.2V27.4h2.8v2.8c1.3-2,3.4-3.3,6.3-3.3c2.8,0,5.2,1.4,6.3,3.7
				c1.4-2.3,3.8-3.7,7-3.7C26.5,26.9,29.5,29.7,29.5,33.9z"/>
			<path id="XMLID_21_" class="st1" d="M50.8,36.6c0-4.4-3.1-7.2-6.9-7.2c-3.5,0-6.9,2.8-6.9,7.2c0,4.4,3.4,7.2,6.9,7.2
				C47.7,43.8,50.8,41,50.8,36.6z M53.6,36.6c0,5.8-4.3,9.7-9.2,9.7c-3.1,0-5.7-1.2-7.3-3.4v2.9h-2.8V18.2H37v12.2
				c1.6-2.2,4.3-3.4,7.3-3.4C49.3,26.9,53.6,30.8,53.6,36.6z"/>
			<path id="XMLID_18_" class="st1" d="M73.6,36.6c0-4.2-3.2-7.1-7-7.1c-3.8,0-7,2.9-7,7.1c0,4.3,3.2,7.2,7,7.2
				C70.4,43.8,73.6,40.9,73.6,36.6z M76.4,36.6c0,5.7-4.3,9.7-9.8,9.7c-5.5,0-9.8-4-9.8-9.7s4.3-9.6,9.8-9.6
				C72,27,76.4,30.9,76.4,36.6z"/>
			<path id="XMLID_17_" class="st1" d="M95.6,27.3L95.3,32h-1.1c-4.5,0-6.6,2.8-6.6,7.9v6h-4.9V27.4h4.9v3.4
				c1.5-2.1,3.6-3.6,6.6-3.6C94.8,27.1,95.1,27.1,95.6,27.3z"/>
			<rect id="XMLID_16_" x="99.3" y="27.4" class="st1" width="4.9" height="18.5"/>
			<rect id="XMLID_15_" x="165" y="18.2" class="st1" width="4.9" height="27.7"/>
			<path id="XMLID_12_" class="st1" d="M188.9,36.6c0-3.4-2.6-5.5-5.3-5.5c-3,0-5.2,2.1-5.2,5.5c0,3.4,2.2,5.5,5.2,5.5
				C186.3,42.1,188.9,40,188.9,36.6z M193.8,45.8h-4.9v-1.4c-1.6,1.3-3.6,2-6.1,2c-4.7,0-9.1-4-9.1-9.8c0-5.8,4.4-9.8,9.1-9.8
				c2.5,0,4.6,0.7,6.1,2v-1.5h4.9V45.8z"/>
			<path id="XMLID_9_" class="st1" d="M235.3,36.6c0-3.4-2.6-5.5-5.3-5.5c-3,0-5.2,2.1-5.2,5.5c0,3.4,2.2,5.5,5.2,5.5
				C232.7,42.1,235.3,40,235.3,36.6z M240.2,45.8h-4.9v-1.4c-1.6,1.3-3.6,2-6.1,2c-4.7,0-9.1-4-9.1-9.8c0-5.8,4.4-9.8,9.1-9.8
				c2.5,0,4.5,0.7,6.1,2V18.2h4.9V45.8z"/>
			<path id="XMLID_8_" class="st1" d="M110.1,27.4V46c0,1.4-1.1,2.5-2.6,2.5c-0.4,0-0.7-0.1-1-0.2l-0.1,4.4c0.7,0.2,1.4,0.3,2.1,0.3
				c3.7,0,6.5-1.9,6.5-6.2V27.4H110.1z"/>
			<path id="XMLID_7_" class="st1" d="M138.5,34.6v11.2h-4.9V35.6c0-2.6-1.5-4.3-3.8-4.3c-2.8,0-4.6,1.8-4.6,6.4v8.2h-4.9V27.4h4.9
				v1.7c1.5-1.4,3.4-2.2,5.9-2.2C135.5,26.8,138.5,30,138.5,34.6z"/>
			<path id="XMLID_6_" class="st1" d="M216.9,34.6v11.2H212V35.6c0-2.6-1.5-4.3-3.8-4.3c-2.8,0-4.6,1.8-4.6,6.4v8.2h-4.9V27.4h4.9
				v1.7c1.5-1.4,3.4-2.2,5.9-2.2C213.9,26.8,216.9,30,216.9,34.6z"/>
			<path id="XMLID_5_" class="st1" d="M101.7,18.9c-1.6,0-2.9,1.3-2.9,2.9c0,1.6,1.3,2.9,2.9,2.9c1.6,0,2.9-1.3,2.9-2.9
				C104.6,20.2,103.3,18.9,101.7,18.9z"/>
			<path id="XMLID_4_" class="st1" d="M112.5,18.9c-1.6,0-2.9,1.3-2.9,2.9c0,1.6,1.3,2.9,2.9,2.9c1.6,0,2.9-1.3,2.9-2.9
				C115.4,20.2,114.1,18.9,112.5,18.9z"/>
		</g>
	</g>
</g>
</svg>
