<?xml version="1.0" encoding="utf-8"?>
<!-- Generator: Adobe Illustrator 21.0.0, SVG Export Plug-In . SVG Version: 6.00 Build 0)  -->
<svg version="1.1"
	 id="Layer_1" xmlns:cc="http://creativecommons.org/ns#" xmlns:dc="http://purl.org/dc/elements/1.1/" xmlns:rdf="http://www.w3.org/1999/02/22-rdf-syntax-ns#"
	 xmlns="http://www.w3.org/2000/svg" xmlns:xlink="http://www.w3.org/1999/xlink" x="0px" y="0px" viewBox="0 0 1000 300"
	 style="enable-background:new 0 0 1000 300;" xml:space="preserve">
<style type="text/css">
	.st0{fill:#0070B8;}
</style>
<g id="XMLID_1_">
	<path id="XMLID_112_" d="M425.3,184v-8.3l34.8-43.6c2.2-2.8,4.6-5.5,7-8.1h-37.9v-8H478v8l-38.2,47.2l-4.1,4.8h43.4v8L425.3,184
		L425.3,184L425.3,184z M488.3,159.4c0-9.1,2.5-15.9,7.6-20.3c4.2-3.6,9.4-5.5,15.5-5.5c6.8,0,12.3,2.2,16.6,6.7
		c4.3,4.4,6.5,10.5,6.5,18.4c0,6.3-0.9,11.3-2.9,15c-1.9,3.6-4.7,6.5-8.3,8.5c-3.7,2-7.8,3-11.9,3c-6.9,0-12.4-2.2-16.7-6.6
		C490.4,174.1,488.3,167.7,488.3,159.4L488.3,159.4z M496.8,159.4c0,6.3,1.4,11,4.1,14.2c2.8,3.1,6.2,4.7,10.4,4.7
		c4.1,0,7.6-1.6,10.4-4.7c2.8-3.1,4.1-8,4.1-14.4c0-6.1-1.4-10.7-4.1-13.9c-2.8-3.1-6.2-4.7-10.3-4.7c-4.2,0-7.6,1.6-10.4,4.7
		C498.2,148.4,496.8,153.1,496.8,159.4L496.8,159.4z M581.6,168.2l8.6,1.1c-1.4,5-3.9,8.9-7.6,11.7c-3.7,2.8-8.4,4.2-14.1,4.2
		c-7.2,0-12.9-2.2-17.1-6.7c-4.2-4.4-6.3-10.7-6.3-18.7c0-8.3,2.1-14.7,6.4-19.3c4.3-4.6,9.8-6.9,16.6-6.9c6.6,0,12,2.2,16.1,6.7
		s6.3,10.8,6.3,18.9c0,0.5,0,1.3,0,2.2h-36.7c0.3,5.4,1.9,9.6,4.6,12.4c2.8,2.9,6.2,4.3,10.3,4.3c3.1,0,5.7-0.8,7.8-2.4
		C578.6,174.3,580.3,171.7,581.6,168.2L581.6,168.2z M554.2,154.7h27.5c-0.4-4.1-1.4-7.2-3.1-9.3c-2.7-3.2-6.1-4.8-10.4-4.8
		c-3.8,0-7,1.3-9.7,3.9C555.9,146.9,554.5,150.4,554.2,154.7L554.2,154.7z M622.6,176.6l1.2,7.4c-2,0.5-4.2,0.7-6.3,0.7
		c-3,0-5.4-0.5-7.1-1.4c-1.6-0.8-2.8-2.2-3.5-3.8c-0.7-1.5-1-4.8-1-9.8v-28.3h-6.1v-6.5h6.1v-12.2l8.3-5v17.2h8.4v6.5h-8.4v28.8
		c0,2.4,0.2,3.9,0.4,4.6c0.3,0.7,0.8,1.3,1.5,1.7c0.7,0.4,1.6,0.6,2.9,0.6C619.9,176.9,621.1,176.8,622.6,176.6L622.6,176.6z
		 M668.1,168.2l8.6,1.1c-1.4,5-3.9,8.9-7.6,11.7c-3.7,2.8-8.4,4.2-14.1,4.2c-7.2,0-12.9-2.2-17.1-6.7c-4.2-4.4-6.3-10.7-6.3-18.7
		c0-8.3,2.1-14.7,6.4-19.3c4.3-4.6,9.8-6.9,16.6-6.9c6.6,0,12,2.2,16.1,6.7s6.3,10.8,6.3,18.9c0,0.5,0,1.3,0,2.2h-36.7
		c0.3,5.4,1.9,9.6,4.6,12.4c2.8,2.9,6.2,4.3,10.3,4.3c3.1,0,5.7-0.8,7.8-2.4C665.2,174.3,666.9,171.7,668.1,168.2L668.1,168.2z
		 M640.7,154.7h27.5c-0.4-4.1-1.4-7.2-3.1-9.3c-2.7-3.2-6.1-4.8-10.4-4.8c-3.8,0-7,1.3-9.7,3.9C642.5,146.9,641,150.4,640.7,154.7
		L640.7,154.7z M690.8,184v-49.2h7.5v7.4c1.9-3.5,3.7-5.8,5.3-6.9c1.6-1.1,3.4-1.7,5.4-1.7c2.8,0,5.7,0.9,8.6,2.7l-2.9,7.8
		c-1.8-1.1-3.9-1.8-6.1-1.8c-1.9,0-3.5,0.6-4.9,1.7c-1.5,1.1-2.6,2.8-3.1,4.6c-0.9,3.1-1.4,6.5-1.4,9.7V184L690.8,184L690.8,184
		L690.8,184z M726.2,184v-49.2h7.4v6.9c1.5-2.4,3.7-4.4,6.2-5.8c2.6-1.5,5.5-2.2,8.8-2.2c3.6,0,6.6,0.7,9,2.3c2.3,1.5,4,3.6,4.9,6.3
		c3.9-5.7,9-8.6,15.2-8.6c4.9,0,8.7,1.4,11.3,4.1c2.6,2.7,3.9,6.9,3.9,12.5V184h-8.3v-31c0-3.3-0.3-5.7-0.8-7.2
		c-0.6-1.5-1.6-2.7-3-3.5c-1.5-0.9-3.3-1.4-5-1.3c-3.5,0-6.3,1.1-8.6,3.5c-2.3,2.3-3.4,6-3.4,11.1V184h-8.3v-32c0-3.7-0.7-6.5-2-8.3
		c-1.4-1.9-3.6-2.8-6.7-2.8c-2.4,0-4.5,0.6-6.5,1.9c-2,1.3-3.5,3.2-4.3,5.4c-0.9,2.4-1.3,5.8-1.3,10.3V184L726.2,184L726.2,184
		L726.2,184z M842.7,168.2l8.6,1.1c-1.3,5-3.9,8.9-7.6,11.7c-3.7,2.8-8.4,4.2-14.1,4.2c-7.2,0-12.9-2.2-17.1-6.7
		c-4.2-4.4-6.3-10.7-6.3-18.7c0-8.3,2.1-14.7,6.4-19.3c4.3-4.6,9.8-6.9,16.6-6.9c6.6,0,12,2.2,16.1,6.7c4.2,4.5,6.3,10.8,6.3,18.9
		c0,0.5,0,1.3,0,2.2h-36.7c0.3,5.4,1.9,9.6,4.6,12.4c2.8,2.9,6.2,4.3,10.3,4.3c3.1,0,5.7-0.8,7.8-2.4
		C839.7,174.3,841.4,171.7,842.7,168.2L842.7,168.2z M815.3,154.7h27.5c-0.4-4.1-1.4-7.2-3.1-9.3c-2.7-3.2-6.1-4.8-10.4-4.8
		c-3.8,0-7,1.3-9.7,3.9C817,146.9,815.6,150.4,815.3,154.7L815.3,154.7z M899.2,168.2l8.6,1.1c-1.4,5-3.9,8.9-7.6,11.7
		c-3.7,2.8-8.4,4.2-14.1,4.2c-7.2,0-12.9-2.2-17.1-6.7c-4.2-4.4-6.3-10.7-6.3-18.7c0-8.3,2.1-14.7,6.4-19.3
		c4.3-4.6,9.8-6.9,16.6-6.9c6.6,0,12,2.2,16.1,6.7s6.3,10.8,6.3,18.9c0,0.5,0,1.3,0,2.2h-36.7c0.3,5.4,1.9,9.6,4.6,12.4
		c2.8,2.9,6.2,4.3,10.3,4.3c3.1,0,5.7-0.8,7.8-2.4C896.2,174.3,897.9,171.7,899.2,168.2L899.2,168.2z M871.8,154.7h27.5
		c-0.4-4.1-1.4-7.2-3.1-9.3c-2.7-3.2-6.1-4.8-10.4-4.8c-3.8,0-7,1.3-9.7,3.9C873.5,146.9,872.1,150.4,871.8,154.7L871.8,154.7z
		 M921.9,184v-49.2h7.5v7.4c1.9-3.5,3.7-5.8,5.3-6.9c1.6-1.1,3.4-1.7,5.4-1.7c2.8,0,5.7,0.9,8.6,2.7l-2.9,7.8
		c-1.8-1.1-3.9-1.8-6.1-1.8c-1.9,0-3.5,0.6-4.9,1.7c-1.5,1.1-2.6,2.8-3.1,4.6c-0.9,3.1-1.4,6.5-1.4,9.7V184L921.9,184L921.9,184
		L921.9,184z M430.7,62.8l4.1,0.6c0.2,1.3,0.6,2.2,1.4,2.8c1,0.7,2.4,1.1,4.3,1.1c1.9,0,3.4-0.4,4.5-1.1c1.1-0.8,1.8-1.9,2.1-3.2
		c0.2-0.9,0.3-2.6,0.3-5.4c-1.8,2.1-4.1,3.2-6.8,3.2c-3.4,0-6-1.2-7.9-3.7c-1.9-2.4-2.8-5.4-2.8-8.8c0-2.4,0.4-4.5,1.3-6.5
		c0.9-2,2.1-3.5,3.7-4.6c1.7-1.1,3.7-1.7,5.7-1.6c2.9,0,5.3,1.2,7.2,3.5v-3h3.9v21.3c0,3.8-0.4,6.6-1.2,8.1c-0.8,1.6-2.1,3-3.7,3.8
		c-1.7,0.9-3.8,1.4-6.3,1.4c-3,0-5.3-0.7-7.1-2C431.5,67.5,430.6,65.5,430.7,62.8L430.7,62.8z M434.1,48c0,3.2,0.6,5.6,1.9,7.1
		s2.9,2.2,4.8,2.2c1.9,0,3.5-0.7,4.8-2.2c1.3-1.5,1.9-3.8,1.9-7c0-3-0.7-5.3-2-6.8c-1.3-1.5-3-2.3-4.8-2.3c-1.9,0-3.4,0.7-4.7,2.2
		C434.8,42.8,434.1,45,434.1,48L434.1,48z M475.9,52.8l4.3,0.5c-0.7,2.5-1.9,4.5-3.8,5.9c-1.9,1.4-4.2,2.1-7,2.1
		c-3.6,0-6.5-1.1-8.6-3.3c-2.1-2.2-3.2-5.3-3.2-9.3c0-4.1,1.1-7.4,3.2-9.6c2.1-2.3,4.9-3.4,8.3-3.4c3.3,0,6,1.1,8.1,3.3
		c2.1,2.2,3.1,5.4,3.1,9.4c0,0.2,0,0.6,0,1.1H462c0.2,2.7,0.9,4.8,2.3,6.2c1.4,1.5,3.1,2.2,5.2,2.2c1.5,0,2.8-0.4,3.9-1.2
		C474.4,55.9,475.3,54.6,475.9,52.8L475.9,52.8z M462.2,46.1h13.7c-0.2-2-0.7-3.6-1.6-4.6c-1.3-1.6-3.1-2.5-5.2-2.4
		c-1.9,0-3.5,0.6-4.8,1.9C463.1,42.2,462.4,43.9,462.2,46.1z M486.7,60.7V36.1h3.7v3.5c1.6-2.5,4.4-4.1,7.5-4c1.8,0,3.3,0.4,4.5,1.1
		c1.2,0.7,2,1.8,2.5,3.2c2-2.9,4.5-4.3,7.6-4.3c2.4,0,4.3,0.7,5.6,2c1.3,1.3,2,3.4,2,6.3v16.9h-4.1V45.3c0-1.7-0.2-2.9-0.4-3.6
		c-0.3-0.7-0.8-1.4-1.5-1.8c-0.7-0.5-1.6-0.7-2.5-0.7c-1.7,0-3.1,0.6-4.3,1.7c-1.1,1.1-1.7,3-1.7,5.5v14.3h-4.2v-16
		c0-1.9-0.4-3.3-1-4.2s-1.8-1.4-3.3-1.4c-1.2,0-2.2,0.3-3.3,0.9c-1,0.6-1.8,1.6-2.2,2.7c-0.4,1.2-0.7,2.9-0.7,5.2v12.8L486.7,60.7
		L486.7,60.7L486.7,60.7z M544.4,52.8l4.3,0.5c-0.7,2.5-1.9,4.5-3.8,5.9c-1.9,1.4-4.2,2.1-7,2.1c-3.6,0-6.5-1.1-8.6-3.3
		c-2.1-2.2-3.1-5.3-3.1-9.3c0-4.1,1.1-7.4,3.2-9.6c2.1-2.3,4.9-3.4,8.3-3.4c3.3,0,6,1.1,8.1,3.3c2.1,2.2,3.1,5.4,3.1,9.4
		c0,0.2,0,0.6,0,1.1h-18.4c0.2,2.7,0.9,4.8,2.3,6.2c1.4,1.5,3.1,2.2,5.2,2.2c1.5,0,2.8-0.4,3.9-1.2
		C542.9,55.9,543.7,54.6,544.4,52.8L544.4,52.8z M530.6,46.1h13.7c-0.2-2-0.7-3.6-1.6-4.6c-1.3-1.6-3.1-2.5-5.2-2.4
		c-1.9,0-3.5,0.6-4.8,1.9C531.5,42.2,530.8,43.9,530.6,46.1z M572,52.8l4.3,0.5c-0.7,2.5-1.9,4.5-3.8,5.9c-1.9,1.4-4.2,2.1-7,2.1
		c-3.6,0-6.5-1.1-8.6-3.3c-2.1-2.2-3.1-5.3-3.1-9.3c0-4.1,1.1-7.4,3.2-9.6c2.1-2.3,4.9-3.4,8.3-3.4c3.3,0,6,1.1,8.1,3.3
		c2.1,2.2,3.1,5.4,3.1,9.4c0,0.2,0,0.6,0,1.1h-18.3c0.2,2.7,0.9,4.8,2.3,6.2c1.4,1.5,3.1,2.2,5.2,2.2c1.5,0,2.8-0.4,3.9-1.2
		C570.5,55.9,571.3,54.6,572,52.8L572,52.8z M558.3,46.1H572c-0.2-2-0.7-3.6-1.6-4.6c-1.3-1.6-3.1-2.5-5.2-2.4
		c-1.9,0-3.5,0.6-4.8,1.9C559.1,42.2,558.4,43.9,558.3,46.1L558.3,46.1z M582.7,60.7V36.1h3.7v3.5c1.8-2.7,4.4-4.1,7.8-4.1
		c1.5,0,2.9,0.3,4.1,0.8c1.3,0.6,2.2,1.2,2.8,2.1c0.6,0.9,1.1,1.9,1.3,3.1c0.2,0.8,0.2,2.1,0.2,4.1v15.2h-4.2v-15
		c0-1.7-0.2-3-0.5-3.8c-0.3-0.9-0.9-1.6-1.7-2c-0.9-0.5-1.9-0.8-2.9-0.7c-1.8,0-3.3,0.6-4.6,1.7c-1.3,1.1-1.9,3.3-1.9,6.4v13.5
		L582.7,60.7L582.7,60.7z M619.5,57l0.6,3.7c-1.2,0.2-2.2,0.4-3.1,0.4c-1.5,0-2.7-0.2-3.5-0.7c-0.8-0.4-1.4-1.1-1.8-1.9
		c-0.4-0.8-0.5-2.4-0.5-4.9V39.4h-3.1v-3.2h3.1v-6.1l4.2-2.5v8.6h4.2v3.2h-4.2v14.4c0,1.2,0.1,2,0.2,2.3c0.2,0.4,0.4,0.6,0.7,0.8
		c0.4,0.2,0.9,0.3,1.4,0.3C618.1,57.2,618.7,57.1,619.5,57z M641.6,52.8l4.3,0.5c-0.7,2.5-1.9,4.5-3.8,5.9c-1.9,1.4-4.2,2.1-7,2.1
		c-3.6,0-6.5-1.1-8.6-3.3c-2.1-2.2-3.2-5.3-3.2-9.3c0-4.1,1.1-7.4,3.2-9.6c2.1-2.3,4.9-3.4,8.3-3.4c3.3,0,6,1.1,8.1,3.3
		c2.1,2.2,3.1,5.4,3.1,9.4l0,1.1h-18.4c0.2,2.7,0.9,4.8,2.3,6.2c1.4,1.5,3.1,2.2,5.2,2.2c1.5,0,2.8-0.4,3.9-1.2
		C640.2,55.9,641,54.6,641.6,52.8L641.6,52.8z M627.9,46.1h13.7c-0.2-2-0.7-3.6-1.6-4.6c-1.3-1.6-3.1-2.5-5.2-2.4
		c-1.9,0-3.5,0.6-4.8,1.9C628.8,42.2,628.1,43.9,627.9,46.1z"/>
	<path id="XMLID_106_" class="st0" d="M63,62.8c12.2-12.8,31.4-15.4,46.8-9c11.5,5.1,21.1,16,23.1,29.5
		c-24.4,3.9-44.2,24.4-48.1,48.1c-11.5-0.6-19.2-7.7-25.6-16C47,99.4,49.6,77,63,62.8L63,62.8z M320.7,62.8
		c-11.5-12.8-30.8-15.4-46.2-9c-11.5,5.1-21.1,16-23.1,29.5c23.7,3.9,43.6,24.4,48.1,48.1c10.9-0.6,19.2-7.7,25.6-16
		C337.4,99.4,334.9,77,320.7,62.8z M191.9,50c19.2,0,37.2,13.5,39.8,33.3c-16,2.6-30.1,12.2-39.8,25.6c-9-13.5-23.7-23.1-39.8-25.6
		c2.6-19.9,20.5-33.3,40.4-33.3L191.9,50L191.9,50z M141.9,0c19.2,0,37.2,13.5,39.8,32.7c-16,3.2-30.1,12.2-39.8,26.3
		c-9-14.1-23.1-23.1-39.8-26.3C104.7,13.5,122.6,0,141.9,0z M242.5,0c-19.9,0-37.2,13.5-40.4,32.7c16.7,3.2,30.8,12.2,40.4,26.3
		c9-14.1,23.1-23.1,39.8-26.3C279.7,13.5,261.2,0,241.9,0C241.9,0,242.5,0,242.5,0z"/>
	<path id="XMLID_2_" class="st0" d="M191.9,148.7c-3.9-19.9-16-39.1-35.3-46.8c-16-5.8-35.3-1.9-46.8,12.8
		c-9.6,12.2-10.9,26.9-6.4,40.4c14.1,37.8,57.7,27.6,88.5,27.6c31.4,0,75,10.3,88.5-27.6c5.1-13.5,3.2-28.2-5.8-40.4
		c-11.5-14.8-30.8-18.6-46.8-12.8C207.9,109.6,196.4,128.9,191.9,148.7L191.9,148.7z M154.1,196.2h25.6V300h-25.6V196.2L154.1,196.2
		z M204.7,196.2h25.6V300h-25.6V196.2z"/>
</g>
</svg>
